PathFileType	4	(X/Y/Z)	
DataRate	CameraRate	NumFrames	NumMarkers	Units	OrigDataRate	OrigDataStartFrame	OrigNumFrames
100	100	4	41	m	100	55	110
Frame#	Time	LELB			LSHO			RSHO			LUPA			LBHD			RUPA			RBHD			C7			RWRB			LWRB			RELB			RBAK			LANK			LKNE			LPSI			T10			LBTO			RPSI			RKNE			LTIB			RTIB			LTHI			RBTO			RTOE			RANK			RHEE			RTHI			LHEE			LFRM			LWRA			RFRM			LFIN			RFIN			RFHD			RWRA			RASI			LTOE			STRN			CLAV			LASI			LFHD			
		X1	Y1	Z1	X2	Y2	Z2	X3	Y3	Z3	X4	Y4	Z4	X5	Y5	Z5	X6	Y6	Z6	X7	Y7	Z7	X8	Y8	Z8	X9	Y9	Z9	X10	Y10	Z10	X11	Y11	Z11	X12	Y12	Z12	X13	Y13	Z13	X14	Y14	Z14	X15	Y15	Z15	X16	Y16	Z16	X17	Y17	Z17	X18	Y18	Z18	X19	Y19	Z19	X20	Y20	Z20	X21	Y21	Z21	X22	Y22	Z22	X23	Y23	Z23	X24	Y24	Z24	X25	Y25	Z25	X26	Y26	Z26	X27	Y27	Z27	X28	Y28	Z28	X29	Y29	Z29	X30	Y30	Z30	X31	Y31	Z31	X32	Y32	Z32	X33	Y33	Z33	X34	Y34	Z34	X35	Y35	Z35	X36	Y36	Z36	X37	Y37	Z37	X38	Y38	Z38	X39	Y39	Z39	X40	Y40	Z40	X41	Y41	Z41	X42	Y42	Z42	X43	Y43	Z43	

56	0.55	0.548268798828125	1.16732067871094	-1.02456059069152	0.461212829589844	1.50016101074219	-1.07930970568176	0.0823884887695313	1.4873681640625	-1.11776225084777	0.509161041259766	1.35781640625	-1.06187266344543	0.3446455078125	1.63461206054688	-1.10416401476379	0.0143421325683594	1.22407385253906	-1.13451963610168	0.194984283447266	1.64066149902344	-1.1114753856134	0.271919677734375	1.53436071777344	-1.15994813341613	0.00836219882965088	0.857682189941406	-1.09085987658019	0.537647521972656	0.897059631347656	-0.95545142931457	-0.00306394600868225	1.12939807128906	-1.12809977526184	0.138938537597656	1.42793298339844	-1.20861173815246	0.366049133300781	0.122891227722168	-1.44782224840637	0.422326904296875	0.499447998046875	-1.1759167918634	0.318016510009766	1.06956103515625	-1.18803349108215	0.300568084716797	1.25307556152344	-1.22228031725402	0.309005432128906	0.0324066543579102	-1.27500657457824	0.251875518798828	1.06781665039063	-1.18884391588684	0.150912231445313	0.503828369140625	-0.914441511101679	0.423994140625	0.361020324707031	-1.26182584948059	0.153790222167969	0.340548004150391	-0.896360898919062	0.443401000976562	0.65127197265625	-1.11890882677551	0.207779159545898	0.0957404022216797	-0.618627710289911	0.194959991455078	0.0782965774536133	-0.674693299241022	0.206385864257812	0.0668127670288086	-0.832482694573359	0.257931182861328	0.022681474685669	-0.880156309075312	0.129779235839844	0.662472595214844	-0.942298841423945	0.335135955810547	0.126927696228027	-1.52153416246887	0.526527954101563	0.942739074707031	-0.92402564806457	0.476391754150391	0.915409851074219	-0.911556196160273	0.0018002952337265	0.910265319824219	-1.06481992907043	0.509626800537109	0.84965966796875	-0.852274290032343	0.00712545204162598	0.776990478515625	-1.00041947741027	0.199430526733398	1.71537780761719	-0.979279371209101	0.0527541236877441	0.871439208984375	-1.02808079332824	0.16161457824707	1.03732177734375	-1.00605314440246	0.337576782226563	0.0346250076293946	-1.32771043200012	0.277891418457031	1.27080700683594	-0.984639844841913	0.267475158691406	1.40160607910156	-1.01039008898254	0.422757598876953	1.02601953125	-1.01500526232238	0.32647412109375	1.70950402832031	-0.969568464226679
57	0.56	0.546704406738281	1.16817016601562	-1.02300206931578	0.459878784179688	1.50123999023437	-1.07833419211851	0.0808021240234375	1.48782043457031	-1.11613927634703	0.507358673095703	1.35879553222656	-1.06033345969664	0.34296484375	1.63603625488281	-1.10290184958922	0.0137630796432495	1.22416955566406	-1.13248790915953	0.193229782104492	1.64215783691406	-1.10981881125914	0.270246429443359	1.53546179199219	-1.15821862205015	0.00831850719451904	0.857677795410156	-1.08894338401304	0.537298522949219	0.897295227050781	-0.955386957011092	-0.00335690045356751	1.12942846679688	-1.12584539206969	0.137595764160156	1.42845629882813	-1.20672725852476	0.367252105712891	0.132455032348633	-1.45034560569273	0.423108978271484	0.499038269042969	-1.16645159324156	0.317422576904297	1.0706953125	-1.18466915305601	0.29973681640625	1.25382788085938	-1.21962191184508	0.308778472900391	0.0324708557128907	-1.28731710227476	0.250941680908203	1.06936340332031	-1.1857998903607	0.149492904663086	0.505826202392578	-0.914516519389021	0.424942962646484	0.363660522460938	-1.25603511985289	0.151351150512695	0.342730529785156	-0.896103647074568	0.443240356445313	0.650582763671875	-1.11110775168883	0.212522964477539	0.0881896514892578	-0.62620957358824	0.198386291503906	0.0729164123535156	-0.682351411661971	0.206103637695313	0.0655141143798828	-0.840745294413435	0.256594451904297	0.023861291885376	-0.89093938621031	0.128726440429688	0.663516784667969	-0.942268518290388	0.335339202880859	0.141909164428711	-1.52331282981383	0.525970581054688	0.942684936523438	-0.92362656577574	0.475967864990234	0.91506396484375	-0.911250528178084	0.00160233914852142	0.910236511230469	-1.06277474387633	0.509544006347656	0.848979797363281	-0.852579294047224	0.00673976564407349	0.776981079101563	-0.998604883036482	0.198067840576172	1.71686987304687	-0.977640619120467	0.0523504676818848	0.871498352050781	-1.02582698997008	0.161395401000977	1.03924841308594	-1.00246547873961	0.337269165039063	0.0347997055053711	-1.33935714133726	0.276754669189453	1.27257983398438	-0.982129236063826	0.266156402587891	1.40316723632813	-1.00851439841734	0.422274383544922	1.02677270507813	-1.01193020041929	0.325138061523437	1.71100036621094	-0.968167383036482
58	0.57	0.544807189941406	1.1696552734375	-1.021522832608	0.45860009765625	1.50297106933594	-1.07735071346738	0.0793567886352539	1.48882568359375	-1.11446585628964	0.505742004394531	1.36050390625	-1.05907034847714	0.341364776611328	1.63797399902344	-1.10154819271543	0.0131830835342407	1.22492529296875	-1.13010501644589	0.191445678710938	1.64404089355469	-1.10820667049863	0.268619476318359	1.5368310546875	-1.15662689754941	0.00824024295806885	0.858408874511719	-1.08687689754941	0.536962951660156	0.898090698242188	-0.955803319668551	-0.00362504506111145	1.13012976074219	-1.12329324886777	0.13614274597168	1.42939099121094	-1.20480011532285	0.368447540283203	0.143043869018555	-1.45091650936582	0.424433990478516	0.498924530029297	-1.15524393246152	0.316927551269531	1.07209814453125	-1.18140717098691	0.2988818359375	1.25480322265625	-1.21700159237363	0.308272796630859	0.0325180816650391	-1.30054346249082	0.250044448852539	1.07094750976562	-1.18268616268613	0.148368667602539	0.508191375732422	-0.912694249844332	0.426420715332031	0.367129638671875	-1.24848297665097	0.147075378417969	0.346103851318359	-0.893594960903903	0.443844146728516	0.650133361816406	-1.10259857723691	0.215892761230469	0.0804499359130859	-0.635599450802584	0.20116145324707	0.0673939056396484	-0.692796333050509	0.206150177001953	0.0648756332397461	-0.852308782315035	0.255866546630859	0.0245861606597901	-0.902835103726168	0.127708885192871	0.664811706542969	-0.941450872158786	0.335062957763672	0.15825227355957	-1.52275488827207	0.525414001464844	0.943134643554688	-0.923634618496676	0.475589019775391	0.915147033691406	-0.911367971157809	0.00143488705158234	0.910929626464844	-1.06056686947324	0.509609466552734	0.84871923828125	-0.853383046841403	0.00642601442337036	0.77755859375	-0.996635625576754	0.196677001953125	1.71858911132813	-0.976007024502535	0.0521059341430664	0.872078735351563	-1.02356274960019	0.161080368041992	1.04170458984375	-0.999154241299411	0.336575408935547	0.035455192565918	-1.35136298153379	0.275667694091797	1.27463525390625	-0.97977176449277	0.264945953369141	1.40516821289063	-1.00665778133847	0.421682525634766	1.02780078125	-1.00919208309629	0.323763549804688	1.71276892089844	-0.966821935391207
59	0.58	0.542587341308594	1.17160681152344	-1.02012498628109	0.457331268310547	1.5052119140625	-1.07629329072445	0.0780927581787109	1.49021667480469	-1.11270894013851	0.504381591796875	1.36265966796875	-1.05790657197445	0.339780731201172	1.64007702636719	-1.10029524384945	0.0125784044265747	1.22618041992188	-1.12738398896664	0.189710968017578	1.64598266601562	-1.10664601289242	0.267013488769531	1.53823291015625	-1.1551986251971	0.00812235164642334	0.859736145019531	-1.08456248628109	0.536627624511719	0.89943994140625	-0.956624620070151	-0.00394527101516724	1.13140368652344	-1.12047682343929	0.134600677490234	1.43052282714844	-1.20275886689632	0.369608734130859	0.154502212524414	-1.45076976167171	0.426143615722656	0.4987646484375	-1.14240141450374	0.316483276367187	1.07350964355469	-1.17827714692562	0.297842620849609	1.25593383789063	-1.21458543549984	0.3072080078125	0.0324544486999512	-1.31262138520687	0.249216217041016	1.07254858398437	-1.1796631942889	0.1476728515625	0.5098984375	-0.910409623732261	0.428122863769531	0.370832580566406	-1.23915519868343	0.144151580810547	0.348589569091797	-0.891976457228354	0.445057647705078	0.649802795410156	-1.09346122895687	0.217593521118164	0.0743444519042969	-0.645241742720298	0.202418441772461	0.0628407897949219	-0.703256712546042	0.206010543823242	0.0650643463134766	-0.863151277174643	0.255500198364258	0.0253513202667236	-0.914257905592612	0.126561935424805	0.666439819335938	-0.940321229567222	0.335128753662109	0.175787643432617	-1.51966240083187	0.524879821777344	0.944066223144531	-0.924029847731284	0.475261688232422	0.915651062011719	-0.911857698073081	0.00124141204357147	0.912197814941406	-1.05815229951351	0.509790832519531	0.848829528808594	-0.854627626051596	0.00620849943161011	0.778575561523438	-0.99446611176937	0.195233184814453	1.72031640625	-0.97441108857601	0.0519352912902832	0.873089416503906	-1.02123603974789	0.160501327514648	1.04424072265625	-0.996077500929526	0.335525360107422	0.0367451934814454	-1.36162822114437	0.274770843505859	1.27676708984375	-0.977549424757651	0.263872650146484	1.40732641601563	-1.00483073579281	0.420773040771484	1.02919287109375	-1.00662797700374	0.322339874267578	1.71462036132813	-0.965490708937339
